<svg width="800" height="801" viewBox="0 0 800 801" fill="none" xmlns="http://www.w3.org/2000/svg">
<circle cx="400" cy="400" r="400" fill="white"/>
<path d="M373.803 0.215314C372.083 0.371716 366.607 0.919126 361.68 1.31013C248.055 11.5545 141.623 72.8643 74.213 167.097C36.6763 219.492 12.6686 278.925 3.59727 341.877C0.391007 363.853 0 370.343 0 400.137C0 429.933 0.391007 436.423 3.59727 458.397C25.3372 608.623 132.239 734.84 277.224 781.603C303.187 789.97 330.557 795.68 361.68 799.12C373.803 800.45 426.197 800.45 438.32 799.12C492.043 793.177 537.557 779.883 582.443 756.97C589.327 753.45 590.653 752.513 589.717 751.73C589.09 751.26 559.767 711.927 524.573 664.38L460.607 577.967L380.45 459.337C336.343 394.117 300.059 340.783 299.746 340.783C299.433 340.703 299.12 393.413 298.964 457.77C298.729 570.46 298.651 574.997 297.243 577.653C295.21 581.487 293.646 583.05 290.362 584.77C287.859 586.023 285.67 586.257 273.861 586.257H260.332L256.735 583.99C254.389 582.503 252.669 580.547 251.496 578.28L249.853 574.76L250.01 417.967L250.244 261.095L252.669 258.045C253.92 256.403 256.579 254.292 258.456 253.275C261.662 251.711 262.913 251.555 276.442 251.555C292.395 251.555 295.054 252.18 299.198 256.716C300.371 257.967 343.773 323.343 395.7 402.093C447.623 480.84 518.63 588.367 553.51 641.153L616.853 737.107L620.06 734.997C648.447 716.54 678.477 690.263 702.247 662.893C752.843 604.79 785.453 533.94 796.403 458.397C799.61 436.423 800 429.933 800 400.137C800 370.343 799.61 363.853 796.403 341.877C774.663 191.652 667.76 65.4353 522.777 18.6708C497.203 10.3815 469.99 4.6728 439.493 1.23193C431.983 0.44992 380.293 -0.410297 373.803 0.215314ZM537.557 242.17C541.31 244.047 544.36 247.644 545.453 251.398C546.08 253.431 546.237 296.911 546.08 394.897L545.847 535.503L521.057 497.497L496.187 459.493V357.283C496.187 291.203 496.5 254.057 496.97 252.258C498.22 247.879 500.957 244.438 504.71 242.405C507.917 240.763 509.09 240.606 521.37 240.606C532.943 240.606 534.977 240.763 537.557 242.17Z" fill="#3B82F6"/>
</svg>
