<svg width="800" height="800" viewBox="0 0 800 800" fill="none" xmlns="http://www.w3.org/2000/svg">
<g clip-path="url(#clip0_26_10)">
<path d="M240 240L261.618 224.387C254.846 215.01 242.801 211.068 231.796 214.627C220.79 218.186 213.333 228.434 213.333 240H240ZM400 746.667C208.541 746.667 53.3333 591.461 53.3333 400H0C0 620.912 179.086 800 400 800V746.667ZM746.667 400C746.667 591.461 591.461 746.667 400 746.667V800C620.912 800 800 620.912 800 400H746.667ZM400 53.3333C591.461 53.3333 746.667 208.541 746.667 400H800C800 179.086 620.912 0 400 0V53.3333ZM400 0C179.086 0 0 179.086 0 400H53.3333C53.3333 208.541 208.541 53.3333 400 53.3333V0ZM266.667 640V240H213.333V640H266.667ZM218.382 255.613L565.051 735.611L608.283 704.389L261.618 224.387L218.382 255.613ZM533.333 213.333V533.333H586.667V213.333H533.333Z" fill="#3B82F6"/>
</g>
<defs>
<clipPath id="clip0_26_10">
<rect width="800" height="800" fill="white"/>
</clipPath>
</defs>
</svg>
